<?xml version="1.0" standalone="no"?>
<!DOCTYPE svg PUBLIC "-//W3C//DTD SVG 20010904//EN"
 "http://www.w3.org/TR/2001/REC-SVG-20010904/DTD/svg10.dtd">
<svg version="1.0" xmlns="http://www.w3.org/2000/svg"
 width="175.000000pt" height="175.000000pt" viewBox="0 0 175.000000 175.000000"
 preserveAspectRatio="xMidYMid meet">

<g transform="translate(-137.500000,312.500000) scale(0.100000,-0.100000)"
fill="#ffffff" stroke="none">
<path d="M1887 2964 c-4 -4 -7 -74 -7 -155 0 -153 4 -167 43 -147 13 7 17 22
17 68 l0 60 108 0 c114 0 136 6 130 36 -3 17 -15 19 -120 22 l-117 3 -3 57
c-3 49 -6 57 -23 60 -12 2 -24 0 -28 -4z"/>
<path d="M2227 2964 c-4 -4 -7 -71 -7 -149 0 -149 6 -173 42 -154 14 8 18 22
18 69 l0 59 118 3 117 3 0 25 0 25 -117 3 -117 3 -3 57 c-3 49 -6 57 -23 60
-12 2 -24 0 -28 -4z"/>
<path d="M2567 2964 c-4 -4 -7 -71 -7 -149 0 -115 3 -145 15 -155 27 -23 45 5
45 71 l0 59 183 0 c231 0 227 2 227 -116 0 -46 -3 -84 -7 -84 -5 -1 -354 -1
-778 -1 l-770 -1 -3 83 c-4 119 -4 119 198 119 128 0 160 3 170 15 10 12 10
18 0 30 -19 23 -318 22 -366 -1 -67 -32 -64 -8 -62 -686 l3 -613 680 -2 680
-3 157 178 158 177 0 441 c0 432 0 442 -21 468 -40 51 -63 56 -263 56 l-185 0
-3 58 c-3 49 -6 57 -23 60 -12 2 -24 0 -28 -4z m463 -740 l0 -294 -134 0 c-74
0 -141 -3 -150 -6 -24 -9 -24 -259 0 -268 34 -13 44 12 44 115 l0 99 101 0
100 0 -18 -23 c-10 -12 -65 -75 -123 -140 l-104 -117 -638 0 -638 0 0 465 0
465 748 2 c411 2 762 1 780 -1 l32 -3 0 -294z"/>
<path d="M2460 2348 c-35 -40 -67 -77 -71 -82 -4 -5 -26 6 -49 24 -42 34 -70
34 -70 1 0 -20 93 -111 114 -111 21 0 177 193 174 215 -6 39 -34 26 -98 -47z"/>
<path d="M1698 2386 c-20 -10 -23 -20 -26 -85 -4 -98 7 -111 95 -111 98 0 103
5 103 105 0 73 -3 86 -19 95 -25 13 -123 11 -153 -4z m112 -93 l0 -43 -40 0
c-40 0 -40 0 -40 39 0 33 4 40 23 43 54 8 57 6 57 -39z"/>
<path d="M2009 2382 c-16 -11 -19 -26 -19 -87 0 -95 9 -105 99 -105 93 0 100
7 102 104 2 67 -1 81 -17 93 -24 18 -138 14 -165 -5z m121 -93 l0 -40 -37 3
c-36 3 -38 5 -41 40 -3 35 -2 37 30 40 45 5 48 2 48 -43z"/>
<path d="M2645 2386 c-27 -19 -34 -136 -11 -171 15 -23 23 -25 91 -25 65 0 76
3 89 22 19 27 22 137 4 160 -18 23 -147 33 -173 14z m120 -91 c0 -40 0 -40
-40 -40 -37 0 -40 2 -42 30 -2 46 1 50 43 50 39 -1 39 -1 39 -40z"/>
<path d="M1680 2111 c-5 -11 -10 -49 -10 -85 0 -86 11 -96 100 -96 102 0 100
-2 100 100 0 103 3 100 -105 100 -63 0 -76 -3 -85 -19z m130 -81 l0 -40 -40 0
-40 0 0 40 0 40 40 0 40 0 0 -40z"/>
<path d="M2000 2111 c-16 -32 -13 -147 6 -165 19 -20 153 -23 172 -4 7 7 12
44 12 94 0 96 2 94 -105 94 -63 0 -76 -3 -85 -19z m130 -81 l0 -40 -40 0 -40
0 0 40 0 40 40 0 40 0 0 -40z"/>
<path d="M2310 2106 c-17 -32 -9 -154 11 -167 7 -5 46 -9 86 -9 93 0 103 9
103 100 0 92 -9 100 -109 100 -72 0 -79 -2 -91 -24z m140 -76 l0 -40 -42 0
-43 0 -1 40 0 40 43 0 43 0 0 -40z"/>
<path d="M1686 1854 c-20 -19 -23 -153 -4 -172 14 -14 174 -17 183 -3 11 19 7
162 -5 176 -18 22 -153 21 -174 -1z m124 -84 l0 -40 -40 0 -40 0 0 40 0 40 40
0 40 0 0 -40z"/>
<path d="M2006 1854 c-21 -21 -23 -156 -2 -173 9 -8 45 -11 98 -9 l83 3 3 83
c2 53 -1 89 -9 98 -17 21 -152 19 -173 -2z m124 -84 l0 -40 -40 0 -40 0 0 40
0 40 40 0 40 0 0 -40z"/>
<path d="M2316 1848 c-18 -26 -22 -129 -6 -159 9 -16 22 -19 95 -19 100 0 105
5 105 104 0 87 -10 96 -105 96 -65 0 -76 -3 -89 -22z m134 -78 l0 -40 -44 0
c-43 0 -44 1 -41 28 2 15 4 33 4 40 1 7 16 12 41 12 l40 0 0 -40z"/>
</g>
</svg>
