<?xml version="1.0" standalone="no"?>
<!DOCTYPE svg PUBLIC "-//W3C//DTD SVG 20010904//EN"
 "http://www.w3.org/TR/2001/REC-SVG-20010904/DTD/svg10.dtd">
<svg version="1.0" xmlns="http://www.w3.org/2000/svg"
 width="1024.000000pt" height="1024.000000pt" viewBox="0 0 1024.000000 1024.000000"
 preserveAspectRatio="xMidYMid meet">

<g transform="translate(0.000000,1024.000000) scale(0.100000,-0.100000)"
fill="#ffffff" stroke="none">
<path d="M4890 9629 c-1157 -56 -2224 -533 -3010 -1345 -486 -503 -816 -1044
-1034 -1696 -94 -281 -169 -625 -201 -928 -22 -204 -30 -620 -16 -810 46 -599
194 -1146 447 -1652 229 -457 483 -808 843 -1168 261 -260 499 -450 808 -646
569 -361 1235 -588 1943 -664 271 -30 745 -27 1015 5 463 54 967 206 1411 424
215 105 296 152 514 297 859 570 1488 1393 1805 2359 77 233 146 556 182 855
25 205 25 770 -1 985 -63 542 -199 1020 -417 1473 -117 243 -246 462 -386 654
-641 881 -1496 1461 -2538 1721 -329 82 -583 120 -926 137 -210 11 -209 11
-439 -1z m1435 -2539 c144 -17 373 -66 504 -109 504 -166 902 -551 1060 -1026
63 -192 66 -214 66 -625 0 -235 6 -429 14 -520 27 -295 -11 -523 -126 -755
-67 -134 -136 -229 -253 -345 -162 -162 -345 -276 -569 -354 -168 -59 -273
-77 -476 -83 -282 -8 -459 21 -849 142 -357 110 -480 131 -696 122 -213 -10
-356 -45 -705 -177 -341 -129 -507 -172 -732 -190 -266 -21 -527 26 -743 135
-273 138 -453 347 -514 599 -28 114 -35 250 -35 646 -1 463 9 539 90 740 80
195 194 356 388 551 191 190 346 309 598 460 639 381 1592 708 2284 783 150
17 569 20 694 6z"/>
<path d="M5680 6739 c-125 -13 -355 -54 -528 -93 -468 -108 -935 -279 -1387
-510 -352 -179 -577 -336 -790 -550 -231 -232 -346 -443 -362 -663 -20 -285
174 -540 500 -653 90 -32 247 -60 334 -60 148 0 349 49 605 146 426 163 616
216 846 236 240 21 448 -9 872 -127 401 -111 535 -137 720 -137 551 0 1002
374 1116 927 22 109 22 344 0 445 -86 395 -328 697 -711 888 -138 68 -364 128
-577 151 -113 13 -514 12 -638 0z m890 -605 c116 -27 206 -78 295 -168 94 -94
138 -174 162 -294 54 -261 -126 -529 -417 -621 -154 -48 -313 -50 -536 -6
-322 65 -604 203 -687 337 -42 68 -45 116 -13 181 32 65 85 116 281 267 204
158 246 186 351 236 186 89 373 112 564 68z"/>
<path d="M6265 5800 c-114 -28 -174 -62 -361 -208 l-125 -97 43 -18 c118 -50
312 -102 448 -118 217 -28 382 42 420 175 27 98 -38 196 -166 251 -46 20 -200
29 -259 15z"/>
<path d="M7620 4520 c0 -23 -188 -203 -271 -260 -301 -206 -647 -300 -996
-270 -163 14 -329 49 -673 143 -405 111 -411 112 -645 112 -277 0 -376 -22
-785 -176 -421 -157 -568 -192 -810 -193 -163 0 -252 13 -390 56 -144 45 -282
119 -413 219 l-27 21 0 -35 c0 -70 32 -203 62 -260 20 -37 61 -86 111 -133 64
-60 102 -86 191 -129 147 -72 244 -96 423 -102 225 -9 386 23 698 137 480 175
613 212 839 230 250 21 438 -10 891 -146 340 -101 515 -130 734 -121 302 13
574 125 782 324 137 131 209 244 254 397 30 104 46 196 33 196 -4 0 -8 -4 -8
-10z"/>
</g>
</svg>
