<svg xmlns="http://www.w3.org/2000/svg" width="52" height="52" viewBox="0 0 256 256">
  <defs>
    <linearGradient id="myGradient" x1="0%" y1="0%" x2="0%" y2="100%">
      <stop offset="0%" stop-color="#ADD19C" />
      <stop offset="40%" stop-color="#91B47A" />
      <stop offset="70%" stop-color="#6B8C5A" />
    </linearGradient>
  </defs>
  <path fill="url(#myGradient)" d="M128,24A104,104,0,1,0,232,128,104.11,104.11,0,0,0,128,24ZM74.08,197.5a64,64,0,0,1,107.84,0,87.83,87.83,0,0,1-107.84,0ZM96,120a32,32,0,1,1,32,32A32,32,0,0,1,96,120Zm97.76,66.41a79.66,79.66,0,0,0-36.06-28.75,48,48,0,1,0-59.4,0,79.66,79.66,0,0,0-36.06,28.75,88,88,0,1,1,131.52,0Z"></path>
</svg>